<svg xmlns="http://www.w3.org/2000/svg" viewBox="0 0 1200 760" preserveAspectRatio="xMidYMid meet">
  <defs>
    <radialGradient id="glow" cx="50%" cy="50%" r="60%">
      <stop offset="0%" stop-color="#9BE22D" stop-opacity="0.22"/>
      <stop offset="55%" stop-color="#22C55E" stop-opacity="0.08"/>
      <stop offset="100%" stop-color="#07100C" stop-opacity="0"/>
    </radialGradient>
    <filter id="soft">
      <feGaussianBlur stdDeviation="0.25"/>
    </filter>
  </defs>
  <rect width="1200" height="760" fill="none"/>
  <rect x="58" y="50" width="1084" height="660" rx="26" fill="none" stroke="#D9FFE0" stroke-opacity="0.34" stroke-width="4" filter="url(#soft)"/>
  <line x1="600" y1="50" x2="600" y2="710" stroke="#D9FFE0" stroke-opacity="0.30" stroke-width="4"/>
  <circle cx="600" cy="380" r="92" fill="none" stroke="#D9FFE0" stroke-opacity="0.30" stroke-width="4"/>
  <circle cx="600" cy="380" r="7" fill="#D9FFE0" fill-opacity="0.28"/>

  <rect x="58" y="238" width="155" height="284" fill="none" stroke="#D9FFE0" stroke-opacity="0.26" stroke-width="4"/>
  <rect x="58" y="306" width="62" height="148" fill="none" stroke="#D9FFE0" stroke-opacity="0.24" stroke-width="4"/>
  <path d="M213 302 A115 115 0 0 1 213 458" fill="none" stroke="#D9FFE0" stroke-opacity="0.20" stroke-width="4"/>
  <circle cx="154" cy="380" r="5" fill="#D9FFE0" fill-opacity="0.24"/>

  <rect x="987" y="238" width="155" height="284" fill="none" stroke="#D9FFE0" stroke-opacity="0.26" stroke-width="4"/>
  <rect x="1080" y="306" width="62" height="148" fill="none" stroke="#D9FFE0" stroke-opacity="0.24" stroke-width="4"/>
  <path d="M987 302 A115 115 0 0 0 987 458" fill="none" stroke="#D9FFE0" stroke-opacity="0.20" stroke-width="4"/>
  <circle cx="1046" cy="380" r="5" fill="#D9FFE0" fill-opacity="0.24"/>

  <path d="M58 50 Q94 50 94 86" fill="none" stroke="#D9FFE0" stroke-opacity="0.18" stroke-width="4"/>
  <path d="M1142 50 Q1106 50 1106 86" fill="none" stroke="#D9FFE0" stroke-opacity="0.18" stroke-width="4"/>
  <path d="M58 710 Q94 710 94 674" fill="none" stroke="#D9FFE0" stroke-opacity="0.18" stroke-width="4"/>
  <path d="M1142 710 Q1106 710 1106 674" fill="none" stroke="#D9FFE0" stroke-opacity="0.18" stroke-width="4"/>
  <ellipse cx="600" cy="380" rx="470" ry="250" fill="url(#glow)"/>
</svg>
